<svg xmlns="http://www.w3.org/2000/svg" xmlns:xlink="http://www.w3.org/1999/xlink" width="1024" zoomAndPan="magnify" viewBox="0 0 384 384.00002" height="1024" preserveAspectRatio="xMidYMid meet" version="1.0"><defs><clipPath id="dd93c696b9"><path d="M 189.472656 181.269531 L 383.5 181.269531 L 383.5 383.003906 L 189.472656 383.003906 Z M 189.472656 181.269531 " clip-rule="nonzero"/></clipPath><clipPath id="91d32728cf"><path d="M 189.472656 520.523438 L 189.472656 245.472656 C 189.472656 243.378906 189.574219 241.289062 189.777344 239.203125 C 189.984375 237.121094 190.292969 235.050781 190.699219 232.996094 C 191.109375 230.941406 191.617188 228.910156 192.226562 226.90625 C 192.832031 224.902344 193.539062 222.929688 194.339844 220.996094 C 195.140625 219.0625 196.035156 217.167969 197.023438 215.320312 C 198.011719 213.472656 199.085938 211.679688 200.25 209.9375 C 201.414062 208.195312 202.660156 206.515625 203.988281 204.894531 C 205.320312 203.277344 206.722656 201.726562 208.207031 200.246094 C 209.6875 198.761719 211.238281 197.359375 212.855469 196.027344 C 214.476562 194.699219 216.15625 193.453125 217.898438 192.289062 C 219.640625 191.125 221.433594 190.050781 223.28125 189.0625 C 225.128906 188.074219 227.023438 187.179688 228.957031 186.378906 C 230.894531 185.578125 232.863281 184.871094 234.867188 184.265625 C 236.871094 183.65625 238.902344 183.148438 240.957031 182.738281 C 243.011719 182.332031 245.082031 182.023438 247.164062 181.816406 C 249.25 181.613281 251.339844 181.507812 253.433594 181.507812 L 512.679688 181.507812 C 514.773438 181.507812 516.863281 181.613281 518.949219 181.816406 C 521.035156 182.023438 523.105469 182.332031 525.160156 182.738281 C 527.214844 183.148438 529.242188 183.65625 531.246094 184.265625 C 533.253906 184.871094 535.222656 185.578125 537.15625 186.378906 C 539.09375 187.179688 540.984375 188.074219 542.832031 189.0625 C 544.679688 190.050781 546.476562 191.125 548.214844 192.289062 C 549.957031 193.453125 551.640625 194.699219 553.257812 196.027344 C 554.878906 197.359375 556.429688 198.761719 557.910156 200.246094 C 559.390625 201.726562 560.796875 203.277344 562.125 204.894531 C 563.453125 206.515625 564.699219 208.195312 565.863281 209.9375 C 567.027344 211.679688 568.105469 213.472656 569.089844 215.320312 C 570.078125 217.167969 570.972656 219.0625 571.773438 220.996094 C 572.578125 222.929688 573.28125 224.902344 573.890625 226.90625 C 574.5 228.910156 575.007812 230.941406 575.414062 232.996094 C 575.824219 235.050781 576.132812 237.121094 576.335938 239.203125 C 576.542969 241.289062 576.644531 243.378906 576.644531 245.472656 L 576.644531 520.523438 C 576.644531 522.617188 576.542969 524.707031 576.335938 526.792969 C 576.132812 528.875 575.824219 530.945312 575.414062 533 C 575.007812 535.054688 574.5 537.085938 573.890625 539.089844 C 573.28125 541.09375 572.578125 543.066406 571.773438 545 C 570.972656 546.9375 570.078125 548.828125 569.089844 550.675781 C 568.105469 552.523438 567.027344 554.316406 565.863281 556.058594 C 564.699219 557.800781 563.453125 559.480469 562.125 561.101562 C 560.796875 562.71875 559.390625 564.269531 557.910156 565.75 C 556.429688 567.234375 554.878906 568.636719 553.257812 569.96875 C 551.640625 571.296875 549.957031 572.542969 548.214844 573.707031 C 546.476562 574.871094 544.679688 575.945312 542.832031 576.933594 C 540.984375 577.921875 539.09375 578.816406 537.15625 579.617188 C 535.222656 580.417969 533.253906 581.125 531.246094 581.730469 C 529.242188 582.339844 527.214844 582.847656 525.160156 583.257812 C 523.105469 583.667969 521.035156 583.972656 518.949219 584.179688 C 516.863281 584.382812 514.773438 584.488281 512.679688 584.488281 L 253.433594 584.488281 C 251.339844 584.488281 249.25 584.382812 247.164062 584.179688 C 245.082031 583.972656 243.011719 583.667969 240.957031 583.257812 C 238.902344 582.847656 236.871094 582.339844 234.867188 581.734375 C 232.863281 581.125 230.894531 580.417969 228.957031 579.617188 C 227.023438 578.816406 225.128906 577.921875 223.28125 576.933594 C 221.433594 575.945312 219.640625 574.871094 217.898438 573.707031 C 216.15625 572.542969 214.476562 571.296875 212.855469 569.96875 C 211.238281 568.636719 209.6875 567.234375 208.207031 565.75 C 206.722656 564.269531 205.320312 562.71875 203.988281 561.101562 C 202.660156 559.480469 201.414062 557.800781 200.25 556.058594 C 199.085938 554.316406 198.011719 552.523438 197.023438 550.675781 C 196.035156 548.828125 195.140625 546.9375 194.339844 545 C 193.539062 543.066406 192.832031 541.09375 192.226562 539.089844 C 191.617188 537.085938 191.109375 535.054688 190.699219 533 C 190.292969 530.945312 189.984375 528.875 189.777344 526.792969 C 189.574219 524.707031 189.472656 522.617188 189.472656 520.523438 Z M 189.472656 520.523438 " clip-rule="nonzero"/></clipPath><clipPath id="80790ccd8b"><path d="M 272 255 L 383.5 255 L 383.5 383.003906 L 272 383.003906 Z M 272 255 " clip-rule="nonzero"/></clipPath><clipPath id="692cb9da80"><path d="M 327 338 L 383.5 338 L 383.5 383.003906 L 327 383.003906 Z M 327 338 " clip-rule="nonzero"/></clipPath></defs><g clip-path="url(#dd93c696b9)"><g clip-path="url(#91d32728cf)"><path fill="#ffffff" d="M 189.472656 181.507812 L 663.5625 181.507812 L 663.5625 647.699219 L 189.472656 647.699219 Z M 189.472656 181.507812 " fill-opacity="1" fill-rule="nonzero"/></g></g><g clip-path="url(#80790ccd8b)"><path fill="#000000" d="M 394.011719 280.3125 C 394.011719 280.328125 393.996094 280.34375 393.980469 280.34375 C 339.101562 279.71875 279.210938 273.578125 273.261719 331.632812 C 267.855469 384.339844 297.960938 440.546875 322.359375 476.472656 C 331.601562 490.082031 336.222656 496.886719 338.484375 495.644531 C 340.746094 494.402344 337.421875 486.695312 330.765625 471.269531 C 310.5625 424.449219 286.910156 352.972656 317.519531 328.386719 C 335.804688 313.699219 398.132812 330.078125 429.375 329.238281 C 474.636719 328.027344 489.378906 292.300781 494.179688 269.160156 C 495.820312 261.269531 496.636719 257.324219 495.125 256.25 C 493.609375 255.175781 489.632812 257.570312 481.667969 262.363281 C 467.316406 271.003906 440.675781 280.8125 394.042969 280.28125 C 394.027344 280.28125 394.011719 280.292969 394.011719 280.3125 Z M 394.011719 280.3125 " fill-opacity="1" fill-rule="nonzero"/></g><g clip-path="url(#692cb9da80)"><path fill="#000000" d="M 403.371094 355.328125 C 403.371094 355.339844 403.363281 355.347656 403.351562 355.347656 C 369.089844 354.957031 331.699219 351.113281 327.984375 387.449219 C 323.972656 426.6875 351.332031 469.023438 366.742188 489.410156 C 370.128906 493.886719 371.820312 496.125 372.550781 495.683594 C 373.277344 495.242188 372.0625 492.679688 369.636719 487.550781 C 356.878906 460.621094 333.445312 403.269531 355.617188 385.414062 C 367.03125 376.222656 405.945312 386.472656 425.449219 385.949219 C 457.75 385.082031 465.152344 355.996094 466.851562 342.703125 C 467.191406 340.023438 467.363281 338.679688 466.808594 338.367188 C 466.25 338.058594 465.09375 338.988281 462.78125 340.847656 C 455.582031 346.632812 438.632812 355.714844 403.390625 355.308594 C 403.378906 355.308594 403.371094 355.316406 403.371094 355.328125 Z M 403.371094 355.328125 " fill-opacity="1" fill-rule="nonzero"/></g></svg>