<svg xmlns="http://www.w3.org/2000/svg" xmlns:xlink="http://www.w3.org/1999/xlink" width="1024" zoomAndPan="magnify" viewBox="0 0 384 384.00002" height="1024" preserveAspectRatio="xMidYMid meet" version="1.0"><defs><clipPath id="9d056352fd"><path d="M 189.472656 181.269531 L 383.5 181.269531 L 383.5 383.003906 L 189.472656 383.003906 Z M 189.472656 181.269531 " clip-rule="nonzero"/></clipPath><clipPath id="abc3e5b2fa"><path d="M 189.472656 520.304688 L 189.472656 245.433594 C 189.472656 243.339844 189.574219 241.25 189.777344 239.167969 C 189.984375 237.085938 190.292969 235.015625 190.699219 232.960938 C 191.109375 230.910156 191.617188 228.878906 192.226562 226.878906 C 192.835938 224.875 193.539062 222.90625 194.34375 220.972656 C 195.144531 219.035156 196.039062 217.144531 197.027344 215.300781 C 198.015625 213.453125 199.089844 211.660156 200.257812 209.917969 C 201.421875 208.179688 202.667969 206.5 203.996094 204.878906 C 205.328125 203.261719 206.734375 201.710938 208.214844 200.230469 C 209.695312 198.753906 211.246094 197.347656 212.867188 196.019531 C 214.488281 194.691406 216.167969 193.445312 217.914062 192.28125 C 219.65625 191.121094 221.449219 190.042969 223.300781 189.058594 C 225.148438 188.070312 227.039062 187.175781 228.976562 186.375 C 230.914062 185.574219 232.882812 184.871094 234.890625 184.261719 C 236.894531 183.65625 238.925781 183.144531 240.980469 182.738281 C 243.035156 182.328125 245.109375 182.023438 247.195312 181.816406 C 249.28125 181.613281 251.371094 181.507812 253.464844 181.507812 L 512.835938 181.507812 C 514.929688 181.507812 517.023438 181.613281 519.109375 181.816406 C 521.195312 182.023438 523.265625 182.328125 525.320312 182.738281 C 527.375 183.144531 529.40625 183.65625 531.414062 184.261719 C 533.417969 184.871094 535.390625 185.574219 537.324219 186.375 C 539.261719 187.175781 541.152344 188.070312 543.003906 189.058594 C 544.851562 190.042969 546.648438 191.121094 548.390625 192.28125 C 550.132812 193.445312 551.8125 194.691406 553.433594 196.019531 C 555.054688 197.347656 556.605469 198.753906 558.085938 200.230469 C 559.570312 201.710938 560.976562 203.261719 562.304688 204.878906 C 563.632812 206.5 564.882812 208.179688 566.046875 209.917969 C 567.210938 211.660156 568.285156 213.453125 569.273438 215.300781 C 570.261719 217.144531 571.15625 219.035156 571.960938 220.972656 C 572.761719 222.90625 573.46875 224.875 574.074219 226.878906 C 574.683594 228.878906 575.191406 230.910156 575.601562 232.960938 C 576.011719 235.015625 576.316406 237.085938 576.523438 239.167969 C 576.726562 241.25 576.832031 243.339844 576.832031 245.433594 L 576.832031 520.304688 C 576.832031 522.398438 576.726562 524.488281 576.523438 526.570312 C 576.316406 528.65625 576.011719 530.722656 575.601562 532.777344 C 575.191406 534.832031 574.683594 536.859375 574.074219 538.863281 C 573.46875 540.867188 572.761719 542.835938 571.960938 544.769531 C 571.15625 546.703125 570.261719 548.59375 569.273438 550.4375 C 568.285156 552.285156 567.210938 554.078125 566.046875 555.820312 C 564.882812 557.5625 563.632812 559.242188 562.304688 560.859375 C 560.976562 562.476562 559.570312 564.027344 558.085938 565.507812 C 556.605469 566.988281 555.054688 568.390625 553.433594 569.71875 C 551.8125 571.046875 550.132812 572.292969 548.390625 573.457031 C 546.648438 574.621094 544.851562 575.695312 543.003906 576.679688 C 541.152344 577.667969 539.261719 578.5625 537.324219 579.363281 C 535.390625 580.164062 533.417969 580.871094 531.414062 581.476562 C 529.40625 582.085938 527.375 582.59375 525.320312 583 C 523.265625 583.410156 521.195312 583.714844 519.109375 583.921875 C 517.023438 584.128906 514.929688 584.230469 512.835938 584.230469 L 253.464844 584.230469 C 251.371094 584.230469 249.28125 584.128906 247.195312 583.921875 C 245.109375 583.714844 243.035156 583.410156 240.980469 583 C 238.925781 582.59375 236.894531 582.085938 234.890625 581.476562 C 232.882812 580.871094 230.914062 580.164062 228.976562 579.363281 C 227.039062 578.5625 225.148438 577.667969 223.300781 576.683594 C 221.449219 575.695312 219.65625 574.621094 217.914062 573.457031 C 216.167969 572.292969 214.488281 571.046875 212.867188 569.71875 C 211.246094 568.390625 209.695312 566.988281 208.214844 565.507812 C 206.734375 564.027344 205.328125 562.476562 203.996094 560.859375 C 202.667969 559.242188 201.421875 557.5625 200.257812 555.820312 C 199.089844 554.078125 198.015625 552.285156 197.027344 550.4375 C 196.039062 548.59375 195.144531 546.703125 194.34375 544.769531 C 193.539062 542.835938 192.835938 540.867188 192.226562 538.863281 C 191.617188 536.859375 191.109375 534.832031 190.699219 532.777344 C 190.292969 530.722656 189.984375 528.65625 189.777344 526.570312 C 189.574219 524.488281 189.472656 522.398438 189.472656 520.304688 Z M 189.472656 520.304688 " clip-rule="nonzero"/></clipPath><clipPath id="28b97cf293"><path d="M 272 255 L 383.5 255 L 383.5 383.003906 L 272 383.003906 Z M 272 255 " clip-rule="nonzero"/></clipPath><clipPath id="9f6122e850"><path d="M 327 338 L 383.5 338 L 383.5 383.003906 L 327 383.003906 Z M 327 338 " clip-rule="nonzero"/></clipPath></defs><g clip-path="url(#9d056352fd)"><g clip-path="url(#abc3e5b2fa)"><path fill="#000000" d="M 189.472656 181.507812 L 663.789062 181.507812 L 663.789062 647.402344 L 189.472656 647.402344 Z M 189.472656 181.507812 " fill-opacity="1" fill-rule="nonzero"/></g></g><g clip-path="url(#28b97cf293)"><path fill="#ffffff" d="M 394.109375 280.246094 C 394.109375 280.265625 394.09375 280.277344 394.078125 280.277344 C 339.171875 279.65625 279.253906 273.519531 273.300781 331.539062 C 267.894531 384.210938 298.015625 440.378906 322.425781 476.285156 C 331.671875 489.882812 336.292969 496.6875 338.558594 495.445312 C 340.820312 494.203125 337.492188 486.5 330.835938 471.085938 C 310.621094 424.292969 286.957031 352.863281 317.578125 328.292969 C 335.875 313.613281 398.234375 329.980469 429.492188 329.144531 C 474.773438 327.933594 489.523438 292.230469 494.328125 269.101562 C 495.964844 261.21875 496.785156 257.273438 495.269531 256.203125 C 493.757812 255.128906 489.777344 257.523438 481.8125 262.3125 C 467.449219 270.945312 440.796875 280.75 394.140625 280.214844 C 394.125 280.214844 394.109375 280.230469 394.109375 280.246094 Z M 394.109375 280.246094 " fill-opacity="1" fill-rule="nonzero"/></g><g clip-path="url(#9f6122e850)"><path fill="#ffffff" d="M 403.472656 355.21875 C 403.472656 355.230469 403.464844 355.238281 403.453125 355.238281 C 369.175781 354.847656 331.769531 351.007812 328.054688 387.316406 C 324.035156 426.53125 351.410156 468.839844 366.828125 489.214844 C 370.214844 493.6875 371.90625 495.925781 372.636719 495.484375 C 373.367188 495.042969 372.152344 492.480469 369.722656 487.355469 C 356.957031 460.441406 333.511719 403.128906 355.695312 385.285156 C 367.117188 376.101562 406.046875 386.34375 425.5625 385.820312 C 457.878906 384.953125 465.285156 355.882812 466.984375 342.601562 C 467.328125 339.921875 467.5 338.582031 466.941406 338.269531 C 466.382812 337.957031 465.226562 338.886719 462.914062 340.742188 C 455.710938 346.527344 438.753906 355.601562 403.492188 355.199219 C 403.480469 355.199219 403.472656 355.207031 403.472656 355.21875 Z M 403.472656 355.21875 " fill-opacity="1" fill-rule="nonzero"/></g></svg>